<svg width="616" height="105" viewBox="0 0 616 105" fill="none" xmlns="http://www.w3.org/2000/svg">
<path d="M601.028 85.504V17.664C601.028 16.5547 601.583 16 602.692 16H603.972C607.983 16 610.969 16.9813 612.932 18.944C614.98 20.8213 616.004 24.1493 616.004 28.928V85.504C616.004 86.6133 615.449 87.168 614.34 87.168H602.692C601.583 87.168 601.028 86.6133 601.028 85.504Z" fill="#454545"/>
<path d="M547.745 70.784L542.753 85.504C542.412 86.6133 541.772 87.168 540.833 87.168H528.801C528.289 87.168 527.948 86.9973 527.777 86.656C527.606 86.2293 527.564 85.8453 527.649 85.504L551.457 17.408C551.798 16.4693 552.438 16 553.377 16H559.009C562.593 16 565.366 16.768 567.329 18.304C569.377 19.84 571.212 22.912 572.833 27.52L593.569 85.504C593.74 85.8453 593.697 86.2293 593.441 86.656C593.27 86.9973 592.886 87.168 592.289 87.168H580.001C578.806 87.168 577.996 86.6133 577.569 85.504L572.577 70.784H547.745ZM552.225 57.984H568.225L560.161 34.048L552.225 57.984Z" fill="#454545"/>
<path d="M483.026 48.512H474.322C473.639 48.512 473.298 48.1707 473.298 47.488V41.088C473.298 40.4054 473.639 40.064 474.322 40.064H483.026V24.192C483.026 23.424 483.325 23.04 483.922 23.04H484.562C487.037 23.04 488.957 23.808 490.322 25.344C491.773 26.7947 492.498 29.0134 492.498 32V40.064H502.354C502.951 40.064 503.25 40.4054 503.25 41.088V47.488C503.25 48.1707 502.951 48.512 502.354 48.512H492.498V86.016C492.498 86.784 492.157 87.168 491.474 87.168H483.922C483.325 87.168 483.026 86.784 483.026 86.016V48.512Z" fill="#454545"/>
<path d="M454.138 27.3919C454.138 25.6852 454.693 24.2772 455.802 23.1679C456.911 22.0586 458.277 21.5039 459.898 21.5039C461.434 21.5039 462.757 22.0586 463.866 23.1679C464.975 24.2772 465.53 25.6852 465.53 27.3919C465.53 29.0132 464.975 30.3786 463.866 31.4879C462.757 32.5972 461.434 33.1519 459.898 33.1519C458.277 33.1519 456.911 32.5972 455.802 31.4879C454.693 30.3786 454.138 29.0132 454.138 27.3919ZM456.058 87.1679C455.375 87.1679 455.034 86.7839 455.034 86.0159V41.2159C455.034 40.4479 455.375 40.0639 456.058 40.0639H456.698C459.173 40.0639 461.093 40.7892 462.458 42.2399C463.909 43.6906 464.634 45.9092 464.634 48.8959V86.0159C464.634 86.7839 464.293 87.1679 463.61 87.1679H456.058Z" fill="#454545"/>
<path d="M415.295 56.576V86.016C415.295 86.784 414.954 87.168 414.271 87.168H406.591C405.908 87.168 405.567 86.784 405.567 86.016V17.152C405.567 16.384 405.908 16 406.591 16H439.359C443.199 16 445.119 17.8347 445.119 21.504V23.68C445.119 24.6187 444.65 25.088 443.711 25.088H415.295V47.488H436.799C440.639 47.488 442.559 49.3653 442.559 53.12V55.04C442.559 56.064 442.047 56.576 441.023 56.576H415.295Z" fill="#454545"/>
<path d="M365.506 69.888V86.016C365.506 86.784 365.207 87.168 364.61 87.168H357.058C356.375 87.168 356.034 86.784 356.034 86.016V17.152C356.034 16.384 356.375 16 357.058 16H357.698C362.903 16 365.506 18.944 365.506 24.832V58.496L382.146 41.344C383.085 40.4907 384.066 40.064 385.09 40.064H393.026C393.453 40.064 393.666 40.192 393.666 40.448C393.751 40.704 393.709 40.9173 393.538 41.088L377.922 57.216L395.714 86.016C395.885 86.272 395.885 86.528 395.714 86.784C395.629 87.04 395.415 87.168 395.074 87.168H387.01C385.901 87.168 385.09 86.6987 384.578 85.76L371.394 64L365.506 69.888Z" fill="#454545"/>
<path d="M329.625 46.848C331.161 44.2026 332.996 42.4106 335.129 41.472C337.262 40.5333 340.036 40.064 343.449 40.064H344.857C345.54 40.064 345.881 40.4053 345.881 41.088V48.128C345.881 48.896 345.54 49.28 344.857 49.28H341.785C337.262 49.28 334.148 50.432 332.441 52.736C330.734 55.04 329.881 58.6666 329.881 63.616V86.016C329.881 86.784 329.582 87.168 328.985 87.168H321.433C320.75 87.168 320.409 86.784 320.409 86.016V41.088C320.409 40.4053 320.75 40.064 321.433 40.064H322.073C324.206 40.064 325.913 40.6613 327.193 41.856C328.558 42.9653 329.369 44.6293 329.625 46.848Z" fill="#454545"/>
<path d="M284.919 88.3201C277.666 88.3201 271.863 86.1014 267.511 81.6641C263.244 77.1414 261.111 71.1681 261.111 63.7441C261.111 56.3201 263.244 50.3468 267.511 45.8241C271.863 41.2161 277.623 38.9121 284.791 38.9121C292.044 38.9121 297.847 41.2161 302.199 45.8241C306.551 50.3468 308.727 56.2774 308.727 63.6161C308.727 71.0401 306.551 77.0134 302.199 81.5361C297.932 86.0588 292.172 88.3201 284.919 88.3201ZM284.791 79.2321C288.802 79.2321 292.13 77.9521 294.775 75.3921C297.506 72.8321 298.871 68.9494 298.871 63.7441C298.871 58.7094 297.506 54.8268 294.775 52.0961C292.13 49.3654 288.802 48.0001 284.791 48.0001C280.695 48.0001 277.367 49.3654 274.807 52.0961C272.247 54.8268 270.967 58.7094 270.967 63.7441C270.967 68.7788 272.247 72.6188 274.807 75.2641C277.367 77.9094 280.695 79.2321 284.791 79.2321Z" fill="#454545"/>
<path d="M189.264 74.496L204.24 17.536C204.496 16.512 205.136 16 206.16 16H208.72C210.768 16 212.389 16.4267 213.584 17.28C214.864 18.1333 215.845 19.968 216.528 22.784L230.992 74.496L244.816 17.536C245.072 16.512 245.755 16 246.864 16H254.16C254.928 16 255.184 16.384 254.928 17.152L236.88 86.016C236.539 86.784 236.027 87.168 235.344 87.168H227.152C226.384 87.168 225.915 86.784 225.744 86.016L209.616 29.056L194.128 86.016C193.787 86.784 193.317 87.168 192.72 87.168H184.4C183.547 87.168 183.035 86.784 182.864 86.016L165.2 17.28C165.029 16.4267 165.328 16 166.096 16H168.272C170.405 16 172.155 16.4267 173.52 17.28C174.885 18.1333 175.952 19.968 176.72 22.784L189.264 74.496Z" fill="#454545"/>
<path d="M70.525 0C26.25 0 0 52.5 0 52.5C0 52.5 26.25 105 70.525 105C113.75 105 140 52.5 140 52.5C140 52.5 113.75 0 70.525 0ZM70 17.5C89.425 17.5 105 33.25 105 52.5C105 71.925 89.425 87.5 70 87.5C50.75 87.5 35 71.925 35 52.5C35 33.25 50.75 17.5 70 17.5ZM70 35C60.375 35 52.5 42.875 52.5 52.5C52.5 62.125 60.375 70 70 70C79.625 70 87.5 62.125 87.5 52.5C87.5 50.75 86.8 49.175 86.45 47.6C85.05 50.4 82.25 52.5 78.75 52.5C73.85 52.5 70 48.65 70 43.75C70 40.25 72.1 37.45 74.9 36.05C73.325 35.525 71.75 35 70 35Z" fill="#1873EB"/>
</svg>
